

<svg t="1682923897545" class="icon" viewBox="130 130 824 824" version="1.1" xmlns="http://www.w3.org/2000/svg" p-id="16333" xmlns:xlink="http://www.w3.org/1999/xlink" width="128" height="128">
<path d="M832 128H192a64 64 0 0 0-64 64v640a64 64 0 0 0 64 64h640a64 64 0 0 0 64-64V192a64 64 0 0 0-64-64zM715.57 625.13a32 32 0 0 1-45.25 0L512 466.82 353.68 625.13a32 32 0 0 1-45.25-45.25L489 399.32c0.13-0.14 0.16-0.32 0.3-0.46a32.21 32.21 0 0 1 45.4 0c0.14 0.14 0.17 0.32 0.3 0.46l180.57 180.56a32 32 0 0 1 0 45.25z" p-id="16334"></path>
</svg>